<svg width="29" height="28" viewBox="0 0 29 28" fill="none" xmlns="http://www.w3.org/2000/svg">
<path d="M4.93252 26.7402C6.98237 26.7402 8.64409 25.3906 8.64409 23.7258C8.64409 22.061 6.98237 20.7114 4.93252 20.7114C2.88268 20.7114 1.22095 22.061 1.22095 23.7258C1.22095 25.3906 2.88268 26.7402 4.93252 26.7402Z" stroke="white" stroke-linejoin="round"/>
<path d="M21.7389 23.2539C23.7888 23.2539 25.4505 21.9043 25.4505 20.2395C25.4505 18.5747 23.7888 17.2251 21.7389 17.2251C19.6891 17.2251 18.0273 18.5747 18.0273 20.2395C18.0273 21.9043 19.6891 23.2539 21.7389 23.2539Z" stroke="white" stroke-linejoin="round"/>
<path d="M25.4505 20.2395V1.25981L8.64185 6.8763V23.7258" stroke="white" stroke-linejoin="round"/>
<path d="M8.64185 13.6976L25.4505 8.15445" stroke="white" stroke-linejoin="round"/>
</svg>
