<svg width="29" height="28" viewBox="0 0 29 28" fill="none" xmlns="http://www.w3.org/2000/svg">
<g clip-path="url(#clip0_168_7)">
<path d="M9.42 23.79C9.38 22.99 9.01 22.26 8.42 21.69C7.65 20.94 6.5 20.46 5.22 20.46C2.89 20.46 1 22.03 1 23.97C1 25.91 2.89 27.48 5.22 27.48C7.55 27.48 9.43 25.91 9.43 23.97C9.43 23.91 9.43 23.85 9.43 23.79H9.42ZM5.22 26.48C3.44 26.48 2 25.36 2 23.97C2 22.58 3.44 21.46 5.22 21.46C7 21.46 8.34 22.51 8.42 23.84C8.42 23.88 8.42 23.93 8.42 23.97C8.42 25.36 6.98 26.48 5.21 26.48H5.22Z" fill="white"/>
<path d="M25.2299 18.21C24.4599 17.45 23.2999 16.97 22.0199 16.97C20.4099 16.97 18.9999 17.73 18.2999 18.85C18.0999 19.16 17.9599 19.49 17.8899 19.84L18.8299 20.69C18.8099 20.62 18.8099 20.55 18.8099 20.48C18.8099 20.15 18.8899 19.83 19.0399 19.53C19.5299 18.62 20.6799 17.97 22.0199 17.97C23.7899 17.97 25.2299 19.1 25.2299 20.48C25.2299 21.67 24.1799 22.66 22.7699 22.93C22.5299 22.98 22.2799 23 22.0199 23C21.7599 23 21.5199 22.98 21.2799 22.93L22.4299 23.98C22.8499 23.95 23.2599 23.86 23.6399 23.73C25.1599 23.2 26.2299 21.94 26.2299 20.48C26.2299 19.62 25.8499 18.83 25.2299 18.21Z" fill="white"/>
<path d="M8.41992 14.11L9.41992 15.02V23.97H8.41992V14.11Z" fill="white"/>
<path d="M26.2299 1.49999V20.48H25.2299V2.19999L9.41992 7.47999V12.11L8.41992 11.19V7.11999C8.41992 6.90999 8.55992 6.70999 8.76992 6.64999L25.5799 1.02999C25.7299 0.979994 25.8999 0.999994 26.0299 1.09999C26.1599 1.18999 26.2299 1.33999 26.2299 1.49999Z" fill="white"/>
<path d="M25.8901 8.87L25.2301 9.09L12.2901 13.36L11.1901 13.72L10.3401 12.95L11.4401 12.59L25.2301 8.04L25.5801 7.92L25.8901 8.87Z" fill="white"/>
<path d="M25.95 26.52C25.85 26.63 25.72 26.68 25.58 26.68C25.46 26.68 25.34 26.64 25.24 26.55L22.43 23.98L21.28 22.93H21.27L18.83 20.7L17.89 19.84L11.19 13.72L10.34 12.95L9.41997 12.11L8.41997 11.19L2.23997 5.55C2.03997 5.36 2.01997 5.05 2.20997 4.84C2.39997 4.64 2.70997 4.62 2.91997 4.81L8.41997 9.83L9.41997 10.74L11.44 12.59L12.29 13.36L18.3 18.85L19.04 19.53L22.77 22.93L23.64 23.73L25.92 25.81C26.12 26 26.14 26.31 25.95 26.52Z" fill="white"/>
</g>
<defs>
<clipPath id="clip0_168_7">
<rect width="25.23" height="26.48" fill="white" transform="translate(1 1)"/>
</clipPath>
</defs>
</svg>
